# File created by Blade
# Date/Time:  Wed Sep 24 20:15:16 2014
# Frame Rate: 120.000 fps
#------------------------------------------------------
:FULLY-SPECIFIED
:DEGREES
1322
root -6.028032 32.771565 -5.744793 16.731946 1.598049 -1.688264
Spine -20.553919 3.076384 4.888304
Head 5.526240 1.652697 1.394018
LeftShoulder -4.125886 17.794333 10.801532
LeftArm 23.148495 39.150735 -71.908454
LeftForeArm -1.360086 -0.000000 21.385533
LeftHand -22.071088 -0.000000 -6.844096
LeftHandThumb1 -26.253704 0.000000 33.147579
RightShoulder -17.807521 15.115163 -11.529817
RightArm -35.894178 53.695436 59.428880
RightForeArm 49.779595 -0.000000 113.503765
RightHand -1.458831 -0.000000 -39.570532
RightHandThumb1 -24.326973 -0.000000 -32.862282
LeftUpLeg -14.944071 7.584485 3.410932
LeftLeg 1.057988 -0.000000 -0.000000
LeftFoot -11.727006 7.745683 -17.983243
LeftToeBase 9.890007 -0.000000 -0.000000
RightUpLeg -16.032603 -5.650237 -1.362974
RightLeg 4.101401 -0.000000 -0.000000
RightFoot -8.485697 -2.250502 -13.151524
RightToeBase 0.138757 -0.000000 -0.000000
1323
root -6.028417 32.771272 -5.747554 16.732176 1.623125 -1.691051
Spine -20.531197 3.087145 4.875840
Head 5.533072 1.644999 1.427648
LeftShoulder -4.128553 17.827247 10.803710
LeftArm 23.153585 39.106042 -71.898208
LeftForeArm -1.374508 -0.000000 21.365353
LeftHand -22.052910 -0.000000 -6.831166
LeftHandThumb1 -26.253704 0.000000 33.147579
RightShoulder -17.798508 15.118962 -11.506792
RightArm -35.872870 53.681986 59.430024
RightForeArm 49.575190 -0.000000 113.562319
RightHand -1.531033 -0.000000 -39.597114
RightHandThumb1 -24.326973 -0.000000 -32.862282
LeftUpLeg -14.951627 7.553254 3.422549
LeftLeg 1.055234 -0.000000 -0.000000
LeftFoot -11.728501 7.756261 -17.991128
LeftToeBase 9.923484 -0.000000 -0.000000
RightUpLeg -16.039183 -5.648685 -1.357975
RightLeg 4.115574 -0.000000 -0.000000
RightFoot -8.487011 -2.284034 -13.144162
RightToeBase 0.168658 -0.000000 -0.000000
1324
root -6.024135 32.771183 -5.745243 16.705532 1.635800 -1.670024
Spine -20.490613 3.095154 4.845798
Head 5.551006 1.655711 1.459602
LeftShoulder -4.128775 17.826995 10.800272
LeftArm 23.095969 39.060149 -71.923997
LeftForeArm -1.403235 -0.000000 21.364881
LeftHand -21.996524 -0.000000 -7.052525
LeftHandThumb1 -26.253704 0.000000 33.147579
RightShoulder -17.770740 15.130978 -11.479270
RightArm -35.877944 53.664618 59.403720
RightForeArm 49.463409 -0.000000 113.604784
RightHand -1.410912 -0.000000 -39.616598
RightHandThumb1 -24.326973 -0.000000 -32.862282
LeftUpLeg -14.917278 7.565596 3.392253
LeftLeg 1.040858 -0.000000 -0.000000
LeftFoot -11.709491 7.732753 -17.975713
LeftToeBase 9.909149 -0.000000 -0.000000
RightUpLeg -16.004197 -5.679876 -1.385838
RightLeg 4.112012 -0.000000 -0.000000
RightFoot -8.494868 -2.259561 -13.143446
RightToeBase 0.123407 -0.000000 -0.000000
1325
root -6.022956 32.771054 -5.746796 16.706216 1.658203 -1.670157
Spine -20.473646 3.113460 4.833714
Head 5.564554 1.642924 1.486429
LeftShoulder -4.130416 17.828976 10.798100
LeftArm 23.086958 39.055922 -71.908759
LeftForeArm -1.361891 -0.000000 21.347664
LeftHand -22.001160 -0.000000 -6.850638
LeftHandThumb1 -26.253704 0.000000 33.147579
RightShoulder -17.756587 15.123324 -11.471898
RightArm -35.870119 53.660464 59.408063
RightForeArm 49.373881 -0.000000 113.646087
RightHand -1.322214 -0.000000 -39.609643
RightHandThumb1 -24.326973 -0.000000 -32.862282
LeftUpLeg -14.925451 7.558490 3.390779
LeftLeg 1.042164 -0.000000 -0.000000
LeftFoot -11.665798 7.737584 -17.854987
LeftToeBase 9.816452 -0.000000 -0.000000
RightUpLeg -16.008064 -5.692967 -1.384023
RightLeg 4.118040 -0.000000 -0.000000
RightFoot -8.500361 -2.254331 -13.117944
RightToeBase 0.136834 -0.000000 -0.000000
1326
root -6.021940 32.770899 -5.748632 16.707890 1.687585 -1.669462
Spine -20.458698 3.125295 4.819098
Head 5.572776 1.631402 1.522851
LeftShoulder -4.127276 17.820848 10.797687
LeftArm 23.078653 39.057955 -71.890039
LeftForeArm -1.402190 0.000000 21.338138
LeftHand -22.031824 -0.000000 -6.683778
LeftHandThumb1 -26.253704 0.000000 33.147579
RightShoulder -17.747108 15.101650 -11.461036
RightArm -35.874552 53.699377 59.397653
RightForeArm 49.437659 -0.000000 113.681475
RightHand -1.342869 -0.000000 -39.509651
RightHandThumb1 -24.326973 -0.000000 -32.862282
LeftUpLeg -14.932809 7.522825 3.397412
LeftLeg 1.037741 -0.000000 -0.000000
LeftFoot -11.660409 7.751899 -17.863574
LeftToeBase 9.776176 -0.000000 -0.000000
RightUpLeg -16.019453 -5.736015 -1.373490
RightLeg 4.136361 -0.000000 -0.000000
RightFoot -8.522836 -2.235510 -13.088148
RightToeBase 0.186990 -0.000000 -0.000000
1327
root -6.021937 32.770752 -5.751103 16.716122 1.715960 -1.675414
Spine -20.453305 3.157760 4.807241
Head 5.582246 1.607891 1.547692
LeftShoulder -4.107345 17.825247 10.805768
LeftArm 23.095455 39.054904 -71.859204
LeftForeArm -1.384755 0.000000 21.318142
LeftHand -22.026074 0.000000 -6.795440
LeftHandThumb1 -26.253704 0.000000 33.147579
RightShoulder -17.752582 15.109606 -11.468120
RightArm -35.891230 53.683908 59.381674
RightForeArm 49.432896 -0.000000 113.707303
RightHand -1.299616 -0.000000 -39.583438
RightHandThumb1 -24.326973 -0.000000 -32.862282
LeftUpLeg -14.955813 7.519823 3.403550
LeftLeg 1.049000 -0.000000 -0.000000
LeftFoot -11.667998 7.723864 -17.866558
LeftToeBase 9.826393 -0.000000 -0.000000
RightUpLeg -16.026967 -5.745935 -1.362338
RightLeg 4.133351 -0.000000 -0.000000
RightFoot -8.504461 -2.266567 -13.118898
RightToeBase 0.184609 -0.000000 -0.000000
1328
root -6.021128 32.770788 -5.753125 16.725286 1.749108 -1.673888
Spine -20.448168 3.178435 4.780143
Head 5.589286 1.564767 1.588549
LeftShoulder -4.099475 17.800093 10.821797
LeftArm 23.082896 39.063287 -71.852908
LeftForeArm -1.393964 0.000000 21.313848
LeftHand -22.030766 0.000000 -6.931252
LeftHandThumb1 -26.253704 0.000000 33.147579
RightShoulder -17.765549 15.084203 -11.448723
RightArm -35.811264 53.641536 59.446727
RightForeArm 49.362576 -0.000000 113.736840
RightHand -1.280904 -0.000000 -39.660470
RightHandThumb1 -24.326973 -0.000000 -32.862282
LeftUpLeg -14.970994 7.496975 3.407160
LeftLeg 1.042163 -0.000000 -0.000000
LeftFoot -11.657817 7.711683 -17.894890
LeftToeBase 9.828202 -0.000000 -0.000000
RightUpLeg -16.036039 -5.770239 -1.358063
RightLeg 4.134429 -0.000000 -0.000000
RightFoot -8.502755 -2.264679 -13.122925
RightToeBase 0.151184 -0.000000 -0.000000
1329
root -6.020153 32.770717 -5.754625 16.726357 1.781098 -1.673049
Spine -20.432728 3.195917 4.767730
Head 5.595899 1.543971 1.589124
LeftShoulder -4.110971 17.784315 10.808423
LeftArm 23.096015 39.061422 -71.813999
LeftForeArm -1.407084 -0.000000 21.319347
LeftHand -22.038695 -0.000000 -6.933933
LeftHandThumb1 -26.253704 0.000000 33.147579
RightShoulder -17.777612 15.094894 -11.450076
RightArm -35.810202 53.620871 59.434878
RightForeArm 49.428454 -0.000000 113.763204
RightHand -1.359473 0.000000 -39.643550
RightHandThumb1 -24.326973 -0.000000 -32.862282
LeftUpLeg -14.976465 7.504946 3.403966
LeftLeg 1.031720 -0.000000 -0.000000
LeftFoot -11.611564 7.665232 -17.972307
LeftToeBase 9.692214 -0.000000 -0.000000
RightUpLeg -16.035902 -5.794864 -1.352864
RightLeg 4.135103 -0.000000 -0.000000
RightFoot -8.501402 -2.271781 -13.131842
RightToeBase 0.175747 -0.000000 -0.000000
1330
root -6.019127 32.770644 -5.756218 16.729473 1.816142 -1.671760
Spine -20.420216 3.217879 4.748618
Head 5.610246 1.514086 1.600694
LeftShoulder -4.111369 17.799367 10.807669
LeftArm 23.143448 39.033759 -71.772488
LeftForeArm -1.409059 -0.000000 21.326782
LeftHand -22.072946 -0.000000 -6.914102
LeftHandThumb1 -26.253704 0.000000 33.147579
RightShoulder -17.805222 15.075890 -11.441448
RightArm -35.752513 53.612455 59.472633
RightForeArm 49.507544 -0.000000 113.778508
RightHand -1.365840 -0.000000 -39.603360
RightHandThumb1 -24.326973 -0.000000 -32.862282
LeftUpLeg -14.987697 7.508655 3.398299
LeftLeg 1.027168 -0.000000 -0.000000
LeftFoot -11.617576 7.647572 -17.872728
LeftToeBase 9.821247 -0.000000 -0.000000
RightUpLeg -16.033867 -5.823180 -1.346839
RightLeg 4.128189 -0.000000 -0.000000
RightFoot -8.505999 -2.270108 -13.103507
RightToeBase 0.200794 -0.000000 -0.000000
1331
root -6.022368 32.770369 -5.761131 16.768525 1.857848 -1.701465
Spine -20.449105 3.255692 4.756987
Head 5.608594 1.487789 1.597291
LeftShoulder -4.103438 17.779484 10.830592
LeftArm 23.152282 39.040301 -71.761852
LeftForeArm -1.394099 -0.000000 21.349687
LeftHand -22.065677 0.000000 -6.750829
LeftHandThumb1 -26.253704 0.000000 33.147579
RightShoulder -17.848889 15.071563 -11.451695
RightArm -35.713997 53.622715 59.510134
RightForeArm 49.564169 -0.000000 113.791817
RightHand -1.322656 -0.000000 -39.587636
RightHandThumb1 -24.326973 -0.000000 -32.862282
LeftUpLeg -15.051060 7.515386 3.430308
LeftLeg 1.042411 -0.000000 -0.000000
LeftFoot -11.622754 7.602942 -17.862501
LeftToeBase 9.853137 -0.000000 -0.000000
RightUpLeg -16.081836 -5.823181 -1.302996
RightLeg 4.136896 -0.000000 -0.000000
RightFoot -8.487350 -2.303724 -13.100831
RightToeBase 0.156405 -0.000000 -0.000000
1332
root -6.021607 32.770501 -5.763193 16.781509 1.900731 -1.700210
Spine -20.452032 3.248401 4.750381
Head 5.622125 1.513654 1.592734
LeftShoulder -4.130368 17.780554 10.827783
LeftArm 23.170135 39.005172 -71.746775
LeftForeArm -1.359120 -0.000000 21.373469
LeftHand -22.052112 -0.000000 -6.684503
LeftHandThumb1 -26.253704 0.000000 33.147579
RightShoulder -17.841258 15.057173 -11.443641
RightArm -35.688054 53.600887 59.532541
RightForeArm 49.588760 -0.000000 113.802986
RightHand -1.247544 -0.000000 -39.533933
RightHandThumb1 -24.326973 -0.000000 -32.862282
LeftUpLeg -15.074833 7.506090 3.428334
LeftLeg 1.041974 -0.000000 -0.000000
LeftFoot -11.603867 7.576755 -17.867636
LeftToeBase 9.836921 -0.000000 -0.000000
RightUpLeg -16.090035 -5.849501 -1.297642
RightLeg 4.132123 -0.000000 -0.000000
RightFoot -8.482752 -2.315131 -13.096998
RightToeBase 0.156407 -0.000000 -0.000000
1333
root -6.020401 32.770197 -5.764277 16.787488 1.944120 -1.696591
Spine -20.448433 3.251516 4.740287
Head 5.634514 1.547463 1.591376
LeftShoulder -4.142485 17.788586 10.830418
LeftArm 23.192089 38.954265 -71.740603
LeftForeArm -1.322169 -0.000000 21.407910
LeftHand -22.048683 0.000000 -6.655177
LeftHandThumb1 -26.253704 0.000000 33.147579
RightShoulder -17.853554 15.051467 -11.448302
RightArm -35.655142 53.575376 59.566028
RightForeArm 49.558418 -0.000000 113.808415
RightHand -1.189584 -0.000000 -39.532577
RightHandThumb1 -24.326973 -0.000000 -32.862282
LeftUpLeg -15.083599 7.497968 3.425040
LeftLeg 1.024814 -0.000000 -0.000000
LeftFoot -11.584316 7.549320 -17.849047
LeftToeBase 9.827255 -0.000000 -0.000000
RightUpLeg -16.086186 -5.883922 -1.293380
RightLeg 4.118701 -0.000000 -0.000000
RightFoot -8.485358 -2.314935 -13.070804
RightToeBase 0.172609 -0.000000 -0.000000
1334
root -6.019257 32.770428 -5.765601 16.795840 1.978747 -1.691834
Spine -20.447711 3.249968 4.726989
Head 5.649249 1.574396 1.588827
LeftShoulder -4.156632 17.806466 10.833308
LeftArm 23.205704 38.893416 -71.731821
LeftForeArm -1.339415 -0.000000 21.477134
LeftHand -22.013729 0.000000 -6.363004
LeftHandThumb1 -26.253704 0.000000 33.147579
RightShoulder -17.855775 15.042999 -11.439020
RightArm -35.597002 53.552060 59.617591
RightForeArm 49.472007 -0.000000 113.806996
RightHand -1.165238 -0.000000 -39.505835
RightHandThumb1 -24.326973 -0.000000 -32.862282
LeftUpLeg -15.092281 7.492821 3.419334
LeftLeg 1.008572 -0.000000 -0.000000
LeftFoot -11.552959 7.527219 -17.844440
LeftToeBase 9.816240 -0.000000 -0.000000
RightUpLeg -16.095439 -5.890722 -1.296138
RightLeg 4.126422 -0.000000 -0.000000
RightFoot -8.476890 -2.350033 -13.113757
RightToeBase 0.193255 -0.000000 -0.000000
